<?xml version="1.0" encoding="UTF-8"?>
<!DOCTYPE svg PUBLIC "-//W3C//DTD SVG 1.1//EN" "http://www.w3.org/Graphics/SVG/1.1/DTD/svg11.dtd">
<svg version="1.1" xmlns="http://www.w3.org/2000/svg" xmlns:xlink="http://www.w3.org/1999/xlink" x="0" y="0" width="313.91" height="86.612" viewBox="0, 0, 313.91, 86.612">
  <g id="レイヤー_1" transform="translate(-80, -145.5)">
    <path d="M82,145.5 L151,145.5 C152.105,145.5 153,146.395 153,147.5 L153,158.1 C153,159.205 152.105,160.1 151,160.1 L82,160.1 C80.895,160.1 80,159.205 80,158.1 L80,147.5 C80,146.395 80.895,145.5 82,145.5 z M82,145.5" fill="#000000"/>
    <path d="M130.667,162.533 L151,162.533 C152.105,162.533 153,163.429 153,164.533 L153,216.5 C153,217.605 152.105,218.5 151,218.5 L130.667,218.5 C129.562,218.5 128.667,217.605 128.667,216.5 L128.667,164.533 C128.667,163.429 129.562,162.533 130.667,162.533 z M130.667,162.533" fill="#000000"/>
    <path d="M82,162.533 L102.333,162.533 C103.438,162.533 104.333,163.429 104.333,164.533 L104.333,216.5 C104.333,217.605 103.438,218.5 102.333,218.5 L82,218.5 C80.895,218.5 80,217.605 80,216.5 L80,164.533 C80,163.429 80.895,162.533 82,162.533 z M82,162.533" fill="#000000"/>
    <path d="M198.896,179.84 C191.912,179.912 186.728,182.648 184.136,188.552 L184.136,164.576 L178.52,164.576 L178.52,218 L184.136,218 L184.136,199.352 C184.136,191.216 188.888,185.528 196.952,185.456 C203.648,185.456 207.68,189.416 207.68,196.112 L207.68,218 L213.296,218 L213.296,194.6 C213.296,185.456 207.968,179.84 198.896,179.84 z" fill="#000000"/>
    <path d="M240.8,179.912 C229.784,179.912 222.008,187.76 222.008,199.064 C222.008,210.368 229.712,218.216 240.872,218.216 C247.208,218.216 252.536,215.912 256.136,211.88 L253.04,208.568 C250.088,211.664 245.984,213.32 241.304,213.32 C233.96,213.32 228.56,208.64 227.552,201.224 L258.512,201.224 C259.088,188.336 253.04,179.84 240.8,179.912 z M227.552,196.616 C228.416,189.416 233.6,184.736 240.8,184.736 C248.216,184.736 253.112,189.344 253.472,196.616 z" fill="#000000"/>
    <path d="M288.464,179.84 C281.552,179.912 276.44,182.648 273.776,188.408 L273.776,180.056 L268.16,180.056 L268.16,218 L273.776,218 L273.776,197.624 C274.424,190.424 279.032,185.528 286.52,185.456 C293.216,185.456 297.248,189.416 297.248,196.112 L297.248,218 L302.864,218 L302.864,194.6 C302.864,185.456 297.536,179.84 288.464,179.84 z" fill="#000000"/>
    <path d="M348.44,180.056 L342.824,180.056 L342.824,187.76 C340.088,182.72 335.192,179.84 328.712,179.84 C318.56,179.912 311.576,187.4 311.576,197.984 C311.576,208.784 318.632,216.344 328.856,216.344 C335.264,216.344 340.16,213.464 342.824,208.424 L342.824,214.184 C342.824,222.104 337.424,227.144 329.144,227.144 C324.104,227.072 320.144,225.416 316.4,222.32 L313.808,226.64 C318.416,230.096 323.384,232.04 329.36,232.112 C340.88,232.112 348.44,225.128 348.44,214.04 z M329.864,211.592 C322.232,211.592 316.904,205.976 316.832,198.2 C316.904,190.352 322.232,184.736 329.864,184.736 C337.424,184.736 342.824,190.28 342.824,198.2 C342.824,205.976 337.424,211.592 329.864,211.592 z" fill="#000000"/>
    <path d="M376.16,179.912 C365.144,179.912 357.368,187.76 357.368,199.064 C357.368,210.368 365.072,218.216 376.232,218.216 C382.568,218.216 387.896,215.912 391.496,211.88 L388.4,208.568 C385.448,211.664 381.344,213.32 376.664,213.32 C369.32,213.32 363.92,208.64 362.912,201.224 L393.872,201.224 C394.448,188.336 388.4,179.84 376.16,179.912 z M362.912,196.616 C363.776,189.416 368.96,184.736 376.16,184.736 C383.576,184.736 388.472,189.344 388.832,196.616 z" fill="#000000"/>
  </g>
</svg>
