<?xml version="1.0" encoding="UTF-8"?><!DOCTYPE svg PUBLIC "-//W3C//DTD SVG 1.1//EN" "http://www.w3.org/Graphics/SVG/1.1/DTD/svg11.dtd"><svg xmlns="http://www.w3.org/2000/svg" xmlns:xlink="http://www.w3.org/1999/xlink"><symbol viewBox="0, 0, 18, 18" id="12"><path d="M15 0a3 3 0 0 1 3 3v12a3 3 0 0 1-3 3H3a3 3 0 0 1-3-3V3a3 3 0 0 1 3-3h12zm-3.236 4.492q-.672 0-1.2.228-.528.228-.882.63t-.522.954q-.168.552-.132 1.2h1.02q-.012-.384.078-.762t.294-.678q.204-.3.522-.486.318-.186.762-.186.336 0 .636.108t.522.312q.222.204.354.486.132.282.132.63 0 .444-.138.78t-.408.624q-.27.288-.678.57-.408.282-.948.618-.444.264-.852.564-.408.3-.732.696-.324.396-.534.93-.21.534-.27 1.29h5.556v-.9H9.976q.072-.396.306-.702.234-.306.564-.57.33-.264.726-.498.396-.234.792-.474.396-.252.768-.528t.66-.618q.288-.342.462-.774.174-.432.174-.996 0-.6-.21-1.056-.21-.456-.57-.762t-.846-.468q-.486-.162-1.038-.162zm-5.164 0h-.78q-.084.48-.312.792-.228.312-.558.492-.33.18-.738.246t-.84.066v.816H5.58V13H6.6V4.492z"/></symbol><symbol viewBox="0, 0, 18, 18" id="16"><path d="M15 0a3 3 0 0 1 3 3v12a3 3 0 0 1-3 3H3a3 3 0 0 1-3-3V3a3 3 0 0 1 3-3h12zm-2.912 4.617q-.912 0-1.512.384t-.96 1.02q-.36.636-.51 1.458-.15.822-.15 1.698 0 .672.102 1.392.102.72.414 1.32.312.6.888.984.576.384 1.524.384.804 0 1.35-.27t.876-.684q.33-.414.474-.918.144-.504.144-.972 0-.588-.18-1.092-.18-.504-.51-.876t-.816-.582q-.486-.21-1.098-.21-.696 0-1.23.264T10 8.769l-.024-.024q.012-.492.096-1.056.084-.564.306-1.05.222-.486.618-.804.396-.318 1.044-.318.612 0 .984.348t.444.924h1.02q-.096-1.056-.72-1.614t-1.68-.558zm-.156 3.936q.432 0 .756.156t.54.414q.216.258.318.612.102.354.102.75 0 .372-.114.714-.114.342-.33.606-.216.264-.534.414-.318.15-.738.15t-.75-.15q-.33-.15-.552-.402-.222-.252-.342-.6-.12-.348-.12-.744t.114-.75q.114-.354.342-.612.228-.258.552-.408.324-.15.756-.15zM6.6 4.617h-.78q-.084.48-.312.792-.228.312-.558.492-.33.18-.738.246t-.84.066v.816H5.58v6.096H6.6V4.617z"/></symbol><symbol viewBox="0, 0, 18, 18" id="20"><path d="M15 0a3 3 0 0 1 3 3v12a3 3 0 0 1-3 3H3a3 3 0 0 1-3-3V3a3 3 0 0 1 3-3h12zm-2.992 4.553q-.66 0-1.134.192-.474.192-.786.516-.312.324-.492.756t-.276.912q-.096.48-.12.984-.024.504-.024.972 0 .468.024.972t.12.984q.096.48.276.906.18.426.492.75t.786.51q.474.186 1.134.186.672 0 1.14-.186.468-.186.78-.51t.492-.75q.18-.426.276-.906.096-.48.12-.984.024-.504.024-.972 0-.468-.024-.972t-.12-.984q-.096-.48-.276-.912-.18-.432-.492-.756t-.786-.516q-.474-.192-1.134-.192zm0 .9q.432 0 .732.168t.498.438q.198.27.3.63.102.36.156.738.054.378.06.756.006.378.006.69 0 .48-.03 1.074-.03.594-.192 1.116-.162.522-.522.882t-1.008.36q-.648 0-1.008-.36t-.522-.882q-.162-.522-.192-1.116-.03-.594-.03-1.074 0-.312.006-.69.006-.378.06-.756t.156-.738q.102-.36.3-.63t.498-.438q.3-.168.732-.168zm-6.244-.9q-.672 0-1.2.228-.528.228-.882.63t-.522.954q-.168.552-.132 1.2h1.02q-.012-.384.078-.762t.294-.678q.204-.3.522-.486.318-.186.762-.186.336 0 .636.108t.522.312q.222.204.354.486.132.282.132.63 0 .444-.138.78t-.408.624q-.27.288-.678.57-.408.282-.948.618-.444.264-.852.564-.408.3-.732.696-.324.396-.534.93-.21.534-.27 1.29h5.556v-.9H3.976q.072-.396.306-.702.234-.306.564-.57.33-.264.726-.498.396-.234.792-.474.396-.252.768-.528t.66-.618q.288-.342.462-.774.174-.432.174-.996 0-.6-.21-1.056-.21-.456-.57-.762t-.846-.468q-.486-.162-1.038-.162z"/></symbol><symbol viewBox="0, 0, 18, 18" id="8"><path d="M15 0a3 3 0 0 1 3 3v12a3 3 0 0 1-3 3H3a3 3 0 0 1-3-3V3a3 3 0 0 1 3-3h12zM8.94 4.493q-.492 0-.942.144-.45.143-.798.419-.348.277-.552.679-.204.402-.204.93 0 .576.324 1.061.324.487.864.703-.72.252-1.104.81-.384.558-.384 1.314 0 .647.222 1.134.222.485.612.81.39.324.918.479.528.157 1.14.157.588 0 1.104-.168.516-.168.894-.498.378-.33.6-.81.222-.48.222-1.104 0-.792-.372-1.338-.372-.547-1.14-.786.54-.24.858-.714.318-.474.318-1.05 0-.409-.144-.799-.144-.39-.45-.696-.306-.306-.798-.491-.492-.186-1.188-.186zm.084 4.476q.36 0 .678.126.318.126.558.342.24.216.378.509.138.295.138.642 0 .36-.126.661-.126.3-.36.522-.234.222-.552.347-.318.127-.702.127-.792 0-1.302-.439-.51-.438-.51-1.205 0-.373.138-.672.138-.3.384-.516.246-.217.576-.33.33-.114.702-.114zm-.012-3.577q.624 0 1.026.331.402.33.402.977 0 .649-.396 1.009-.396.36-1.008.36-.312 0-.588-.084-.276-.084-.48-.252-.204-.168-.324-.427-.12-.257-.12-.606 0-.323.12-.563.12-.241.318-.409.198-.168.474-.252.276-.084.576-.084z"/></symbol><symbol viewBox="0, 0, 18, 18" id="d2"><path d="M15.11 0A2.89 2.89 0 0 1 18 2.89v12.22A2.89 2.89 0 0 1 15.11 18H2.89A2.89 2.89 0 0 1 0 15.11V2.89A2.89 2.89 0 0 1 2.89 0h12.22zm-1.86 10.875a2.5 2.5 0 1 0 0 5 2.5 2.5 0 0 0 0-5zM4.937 2.188a2.5 2.5 0 1 0 0 5 2.5 2.5 0 0 0 0-5z"/></symbol><symbol viewBox="0, 0, 18, 18" id="d3"><path d="M15.11 0A2.89 2.89 0 0 1 18 2.89v12.22A2.89 2.89 0 0 1 15.11 18H2.89A2.89 2.89 0 0 1 0 15.11V2.89A2.89 2.89 0 0 1 2.89 0h12.22zm-1.86 10.875a2.5 2.5 0 1 0 0 5 2.5 2.5 0 0 0 0-5zm-4-4.375a2.5 2.5 0 1 0 0 5 2.5 2.5 0 0 0 0-5zM4.937 2.187a2.5 2.5 0 1 0 .002 5.002 2.5 2.5 0 0 0-.002-5.002z"/></symbol><symbol viewBox="0, 0, 18, 18" id="d4"><path d="M15.11 0A2.89 2.89 0 0 1 18 2.889V15.11A2.89 2.89 0 0 1 15.11 18H2.89A2.89 2.89 0 0 1 0 15.11V2.889A2.89 2.89 0 0 1 2.89 0h12.22zM4.937 10.874a2.5 2.5 0 1 0 .002 5.002 2.5 2.5 0 0 0-.002-5.002zm8.313 0a2.5 2.5 0 1 0 0 5 2.5 2.5 0 0 0 0-5zM4.937 2.187a2.5 2.5 0 1 0 0 5 2.5 2.5 0 0 0 0-5zm8.063 0a2.5 2.5 0 1 0 0 5 2.5 2.5 0 0 0 0-5z"/></symbol><symbol viewBox="0, 0, 18, 18" id="d5"><path d="M15.11 0A2.89 2.89 0 0 1 18 2.89v12.22A2.89 2.89 0 0 1 15.11 18H2.89A2.89 2.89 0 0 1 0 15.11V2.89A2.89 2.89 0 0 1 2.89 0h12.22zm-1.86 10.875a2.5 2.5 0 1 0 0 5 2.5 2.5 0 0 0 0-5zm-8.313 0a2.5 2.5 0 1 0 0 5 2.5 2.5 0 0 0 0-5zM9 6.5a2.5 2.5 0 1 0 0 5 2.5 2.5 0 0 0 0-5zm4-4.312a2.5 2.5 0 1 0-.001 4.999A2.5 2.5 0 0 0 13 2.188zm-8.063 0a2.5 2.5 0 1 0 0 5 2.5 2.5 0 0 0 0-5z"/></symbol><symbol viewBox="0, 0, 73, 73" id="icon"><path d="M2 0h69a2 2 0 0 1 2 2v10.6a2 2 0 0 1-2 2H2a2 2 0 0 1-2-2V2a2 2 0 0 1 2-2zm0 0M50.667 17.033H71a2 2 0 0 1 2 2V71a2 2 0 0 1-2 2H50.667a2 2 0 0 1-2-2V19.033a2 2 0 0 1 2-2zm0 0M2 17.033h20.333a2 2 0 0 1 2 2V71a2 2 0 0 1-2 2H2a2 2 0 0 1-2-2V19.033a2 2 0 0 1 2-2zm0 0"/></symbol><symbol viewBox="0, 0, 316.094, 87.112" id="logo"><g transform="translate(-5 -4)"><path d="M7 4h69a2 2 0 0 1 2 2v10.6a2 2 0 0 1-2 2H7a2 2 0 0 1-2-2V6a2 2 0 0 1 2-2zm0 0M55.667 20.977H76a2 2 0 0 1 2 2v51.967a2 2 0 0 1-2 2H55.667a2 2 0 0 1-2-2V22.977a2 2 0 0 1 2-2zm0 0M7 21.033h20.333a2 2 0 0 1 2 2V75a2 2 0 0 1-2 2H7a2 2 0 0 1-2-2V23.033a2 2 0 0 1 2-2zm0 0M96.632 26.6V77h5.76V54.68h30.384V77h5.76V26.6h-5.76v22.824h-30.384V26.6zM167.984 38.912c-11.016.072-18.792 7.848-18.792 19.152 0 11.304 7.704 19.152 18.864 19.152 6.336 0 11.664-2.304 15.264-6.264l-3.096-3.24c-2.952 3.096-7.056 4.824-11.736 4.824-7.416 0-12.816-4.896-13.752-12.384h30.96c.576-12.816-5.472-21.24-17.712-21.24zm-13.248 16.776c.792-7.344 5.976-12.096 13.248-12.096 7.416 0 12.312 4.752 12.672 12.096zM215.648 38.912c-6.912.072-12.024 2.808-14.688 8.568v-8.352h-5.616V77h5.616V56.696c.648-7.344 5.256-12.312 12.744-12.384 6.696 0 10.728 4.032 10.728 10.8V77h5.616V53.672c0-9.216-5.328-14.76-14.4-14.76zM270.008 39.128v7.704c-2.736-5.04-7.632-7.992-14.112-7.92-10.152.072-17.136 7.488-17.136 18.144 0 10.728 7.056 18.288 17.28 18.288 6.408 0 11.304-2.88 13.968-7.92v5.76c0 7.992-5.4 13.104-13.68 13.104-5.04-.072-9-1.728-12.744-4.824l-2.592 4.104c4.608 3.528 9.576 5.472 15.552 5.544 11.52 0 19.08-6.984 19.08-18.072V39.128zm-12.96 31.608c-7.632 0-12.96-5.688-13.032-13.536.072-7.92 5.4-13.608 13.032-13.608 7.56 0 12.96 5.688 12.96 13.608 0 7.848-5.4 13.536-12.96 13.536zM303.344 38.912c-11.016.072-18.792 7.848-18.792 19.152 0 11.304 7.704 19.152 18.864 19.152 6.336 0 11.664-2.304 15.264-6.264l-3.096-3.24c-2.952 3.096-7.056 4.824-11.736 4.824-7.416 0-12.816-4.896-13.752-12.384h30.96c.576-12.816-5.472-21.24-17.712-21.24zm-13.248 16.776c.792-7.344 5.976-12.096 13.248-12.096 7.416 0 12.312 4.752 12.672 12.096z"/></g></symbol><symbol viewBox="0, 0, 18, 18" id="p"><path d="M15 0c1.656 0 3 1.344 3 3v12a3 3 0 0 1-3 3H3a3 3 0 0 1-3-3V3a3 3 0 0 1 3-3h12zM9.803 4.432H6.048V13h1.139V9.496h2.616q1.297.012 1.963-.66.666-.671.666-1.872 0-1.2-.666-1.866-.666-.666-1.962-.666zm-.383.96q.971 0 1.422.402.45.402.45 1.17 0 .768-.45 1.176-.451.409-1.422.396H7.187V5.392H9.42z"/></symbol><symbol viewBox="0, 0, 18, 18" id="s"><path d="M15 0a3 3 0 0 1 3 3v12a3 3 0 0 1-3 3H3a3 3 0 0 1-3-3V3a3 3 0 0 1 3-3h12zM8.927 4.228q-.588 0-1.145.15-.559.15-.996.456-.439.306-.702.78-.264.474-.264 1.122 0 .588.233.978.234.39.625.636.389.246.881.396.493.15 1.003.264.509.114 1.001.222.492.108.883.282.389.174.624.45.233.276.233.72 0 .468-.192.768-.191.3-.503.474-.313.174-.702.246-.391.072-.775.072-.479 0-.935-.12-.457-.12-.798-.372-.343-.252-.552-.642-.211-.39-.211-.93h-1.08q0 .78.283 1.35.281.57.767.936.487.366 1.129.546.642.18 1.362.18.587 0 1.182-.138.594-.138 1.073-.444.481-.306.787-.792.306-.486.306-1.17 0-.636-.235-1.056-.233-.42-.624-.696-.389-.276-.881-.438-.492-.162-1.003-.282-.51-.12-1.001-.222-.492-.102-.883-.258-.389-.156-.623-.402-.235-.246-.235-.642 0-.42.163-.702.161-.282.431-.45.271-.168.618-.24.348-.072.709-.072.888 0 1.458.414.569.414.665 1.338h1.08q-.024-.708-.27-1.218-.246-.51-.672-.846-.425-.336-.989-.492-.564-.156-1.224-.156z"/></symbol></svg>