<?xml version="1.0" encoding="UTF-8"?>
<!DOCTYPE svg PUBLIC "-//W3C//DTD SVG 1.1//EN" "http://www.w3.org/Graphics/SVG/1.1/DTD/svg11.dtd">
<svg version="1.1" xmlns="http://www.w3.org/2000/svg" xmlns:xlink="http://www.w3.org/1999/xlink" x="0" y="0" width="72" height="72" viewBox="0, 0, 18, 18">
  <g id="レイヤー_1" transform="translate(-314, -218.062)">
    <path d="M329,218.062 C330.657,218.062 332,219.406 332,221.062 L332,233.062 C332,234.719 330.657,236.062 329,236.062 L317,236.062 C315.343,236.062 314,234.719 314,233.062 L314,221.062 C314,219.406 315.343,218.062 317,218.062 L329,218.062 z M325.764,222.554 Q325.092,222.554 324.564,222.782 Q324.036,223.01 323.682,223.412 Q323.328,223.814 323.16,224.366 Q322.992,224.918 323.028,225.566 L324.048,225.566 Q324.036,225.182 324.126,224.804 Q324.216,224.426 324.42,224.126 Q324.624,223.826 324.942,223.64 Q325.26,223.454 325.704,223.454 Q326.04,223.454 326.34,223.562 Q326.64,223.67 326.862,223.874 Q327.084,224.078 327.216,224.36 Q327.348,224.642 327.348,224.99 Q327.348,225.434 327.21,225.77 Q327.072,226.106 326.802,226.394 Q326.532,226.682 326.124,226.964 Q325.716,227.246 325.176,227.582 Q324.732,227.846 324.324,228.146 Q323.916,228.446 323.592,228.842 Q323.268,229.238 323.058,229.772 Q322.848,230.306 322.788,231.062 L328.344,231.062 L328.344,230.162 L323.976,230.162 Q324.048,229.766 324.282,229.46 Q324.516,229.154 324.846,228.89 Q325.176,228.626 325.572,228.392 Q325.968,228.158 326.364,227.918 Q326.76,227.666 327.132,227.39 Q327.504,227.114 327.792,226.772 Q328.08,226.43 328.254,225.998 Q328.428,225.566 328.428,225.002 Q328.428,224.402 328.218,223.946 Q328.008,223.49 327.648,223.184 Q327.288,222.878 326.802,222.716 Q326.316,222.554 325.764,222.554 z M320.6,222.554 L319.82,222.554 Q319.736,223.034 319.508,223.346 Q319.28,223.658 318.95,223.838 Q318.62,224.018 318.212,224.084 Q317.804,224.15 317.372,224.15 L317.372,224.966 L319.58,224.966 L319.58,231.062 L320.6,231.062 L320.6,222.554 z" fill="#000000"/>
  </g>
</svg>
