<?xml version="1.0" encoding="UTF-8"?>
<!DOCTYPE svg PUBLIC "-//W3C//DTD SVG 1.1//EN" "http://www.w3.org/Graphics/SVG/1.1/DTD/svg11.dtd">
<svg version="1.1" xmlns="http://www.w3.org/2000/svg" xmlns:xlink="http://www.w3.org/1999/xlink" x="0" y="0" width="72" height="72" viewBox="0, 0, 18, 18">
  <g id="レイヤー_1" transform="translate(-314, -239.062)">
    <path d="M329,239.062 C330.657,239.062 332,240.406 332,242.062 L332,254.062 C332,255.719 330.657,257.062 329,257.062 L317,257.062 C315.343,257.062 314,255.719 314,254.062 L314,242.062 C314,240.406 315.343,239.062 317,239.062 L329,239.062 z M326.088,243.679 Q325.176,243.679 324.576,244.063 Q323.976,244.447 323.616,245.083 Q323.256,245.719 323.106,246.541 Q322.956,247.363 322.956,248.239 Q322.956,248.911 323.058,249.631 Q323.16,250.351 323.472,250.951 Q323.784,251.551 324.36,251.935 Q324.936,252.319 325.884,252.319 Q326.688,252.319 327.234,252.049 Q327.78,251.779 328.11,251.365 Q328.44,250.951 328.584,250.447 Q328.728,249.943 328.728,249.475 Q328.728,248.887 328.548,248.383 Q328.368,247.879 328.038,247.507 Q327.708,247.135 327.222,246.925 Q326.736,246.715 326.124,246.715 Q325.428,246.715 324.894,246.979 Q324.36,247.243 324,247.831 L323.976,247.807 Q323.988,247.315 324.072,246.751 Q324.156,246.187 324.378,245.701 Q324.6,245.215 324.996,244.897 Q325.392,244.579 326.04,244.579 Q326.652,244.579 327.024,244.927 Q327.396,245.275 327.468,245.851 L328.488,245.851 Q328.392,244.795 327.768,244.237 Q327.144,243.679 326.088,243.679 z M325.932,247.615 Q326.364,247.615 326.688,247.771 Q327.012,247.927 327.228,248.185 Q327.444,248.443 327.546,248.797 Q327.648,249.151 327.648,249.547 Q327.648,249.919 327.534,250.261 Q327.42,250.603 327.204,250.867 Q326.988,251.131 326.67,251.281 Q326.352,251.431 325.932,251.431 Q325.512,251.431 325.182,251.281 Q324.852,251.131 324.63,250.879 Q324.408,250.627 324.288,250.279 Q324.168,249.931 324.168,249.535 Q324.168,249.139 324.282,248.785 Q324.396,248.431 324.624,248.173 Q324.852,247.915 325.176,247.765 Q325.5,247.615 325.932,247.615 z M320.6,243.679 L319.82,243.679 Q319.736,244.159 319.508,244.471 Q319.28,244.783 318.95,244.963 Q318.62,245.143 318.212,245.209 Q317.804,245.275 317.372,245.275 L317.372,246.091 L319.58,246.091 L319.58,252.187 L320.6,252.187 L320.6,243.679 z" fill="#000000"/>
  </g>
</svg>
