<?xml version="1.0" encoding="UTF-8"?>
<!DOCTYPE svg PUBLIC "-//W3C//DTD SVG 1.1//EN" "http://www.w3.org/Graphics/SVG/1.1/DTD/svg11.dtd">
<svg version="1.1" xmlns="http://www.w3.org/2000/svg" xmlns:xlink="http://www.w3.org/1999/xlink" x="0" y="0" width="72" height="72" viewBox="0, 0, 18, 18">
  <g id="レイヤー_1" transform="translate(-314, -260.438)">
    <path d="M329,260.438 C330.657,260.438 332,261.781 332,263.438 L332,275.438 C332,277.094 330.657,278.438 329,278.438 L317,278.438 C315.343,278.438 314,277.094 314,275.438 L314,263.438 C314,261.781 315.343,260.438 317,260.438 L329,260.438 z M326.008,264.991 Q325.348,264.991 324.874,265.183 Q324.4,265.375 324.088,265.699 Q323.776,266.023 323.596,266.455 Q323.416,266.887 323.32,267.367 Q323.224,267.847 323.2,268.351 Q323.176,268.855 323.176,269.323 Q323.176,269.791 323.2,270.295 Q323.224,270.799 323.32,271.279 Q323.416,271.759 323.596,272.185 Q323.776,272.611 324.088,272.935 Q324.4,273.259 324.874,273.445 Q325.348,273.631 326.008,273.631 Q326.68,273.631 327.148,273.445 Q327.616,273.259 327.928,272.935 Q328.24,272.611 328.42,272.185 Q328.6,271.759 328.696,271.279 Q328.792,270.799 328.816,270.295 Q328.84,269.791 328.84,269.323 Q328.84,268.855 328.816,268.351 Q328.792,267.847 328.696,267.367 Q328.6,266.887 328.42,266.455 Q328.24,266.023 327.928,265.699 Q327.616,265.375 327.142,265.183 Q326.668,264.991 326.008,264.991 z M326.008,265.891 Q326.44,265.891 326.74,266.059 Q327.04,266.227 327.238,266.497 Q327.436,266.767 327.538,267.127 Q327.64,267.487 327.694,267.865 Q327.748,268.243 327.754,268.621 Q327.76,268.999 327.76,269.311 Q327.76,269.791 327.73,270.385 Q327.7,270.979 327.538,271.501 Q327.376,272.023 327.016,272.383 Q326.656,272.743 326.008,272.743 Q325.36,272.743 325,272.383 Q324.64,272.023 324.478,271.501 Q324.316,270.979 324.286,270.385 Q324.256,269.791 324.256,269.311 Q324.256,268.999 324.262,268.621 Q324.268,268.243 324.322,267.865 Q324.376,267.487 324.478,267.127 Q324.58,266.767 324.778,266.497 Q324.976,266.227 325.276,266.059 Q325.576,265.891 326.008,265.891 z M319.764,264.991 Q319.092,264.991 318.564,265.219 Q318.036,265.447 317.682,265.849 Q317.328,266.251 317.16,266.803 Q316.992,267.355 317.028,268.003 L318.048,268.003 Q318.036,267.619 318.126,267.241 Q318.216,266.863 318.42,266.563 Q318.624,266.263 318.942,266.077 Q319.26,265.891 319.704,265.891 Q320.04,265.891 320.34,265.999 Q320.64,266.107 320.862,266.311 Q321.084,266.515 321.216,266.797 Q321.348,267.079 321.348,267.427 Q321.348,267.871 321.21,268.207 Q321.072,268.543 320.802,268.831 Q320.532,269.119 320.124,269.401 Q319.716,269.683 319.176,270.019 Q318.732,270.283 318.324,270.583 Q317.916,270.883 317.592,271.279 Q317.268,271.675 317.058,272.209 Q316.848,272.743 316.788,273.499 L322.344,273.499 L322.344,272.599 L317.976,272.599 Q318.048,272.203 318.282,271.897 Q318.516,271.591 318.846,271.327 Q319.176,271.063 319.572,270.829 Q319.968,270.595 320.364,270.355 Q320.76,270.103 321.132,269.827 Q321.504,269.551 321.792,269.209 Q322.08,268.867 322.254,268.435 Q322.428,268.003 322.428,267.439 Q322.428,266.839 322.218,266.383 Q322.008,265.927 321.648,265.621 Q321.288,265.315 320.802,265.153 Q320.316,264.991 319.764,264.991 z" fill="#000000"/>
  </g>
</svg>
