<?xml version="1.0" encoding="UTF-8"?>
<!DOCTYPE svg PUBLIC "-//W3C//DTD SVG 1.1//EN" "http://www.w3.org/Graphics/SVG/1.1/DTD/svg11.dtd">
<svg version="1.1" xmlns="http://www.w3.org/2000/svg" xmlns:xlink="http://www.w3.org/1999/xlink" x="0" y="0" width="72" height="72" viewBox="0, 0, 18, 18">
  <g id="レイヤー_1" transform="translate(-314, -197.562)">
    <path d="M329,197.562 C330.657,197.562 332,198.906 332,200.562 L332,212.562 C332,214.219 330.657,215.562 329,215.562 L317,215.562 C315.343,215.562 314,214.219 314,212.562 L314,200.562 C314,198.906 315.343,197.562 317,197.562 L329,197.562 z M322.94,202.055 Q322.448,202.055 321.998,202.199 Q321.548,202.342 321.2,202.618 Q320.852,202.895 320.648,203.297 Q320.444,203.699 320.444,204.227 Q320.444,204.803 320.768,205.288 Q321.092,205.775 321.632,205.991 Q320.912,206.243 320.528,206.801 Q320.144,207.359 320.144,208.115 Q320.144,208.762 320.366,209.249 Q320.588,209.734 320.978,210.059 Q321.368,210.383 321.896,210.538 Q322.424,210.695 323.036,210.695 Q323.624,210.695 324.14,210.527 Q324.656,210.359 325.034,210.029 Q325.412,209.699 325.634,209.219 Q325.856,208.739 325.856,208.115 Q325.856,207.323 325.484,206.777 Q325.112,206.23 324.344,205.991 Q324.884,205.751 325.202,205.277 Q325.52,204.803 325.52,204.227 Q325.52,203.818 325.376,203.428 Q325.232,203.038 324.926,202.732 Q324.62,202.426 324.128,202.241 Q323.636,202.055 322.94,202.055 z M323.024,206.531 Q323.384,206.531 323.702,206.657 Q324.02,206.783 324.26,206.999 Q324.5,207.215 324.638,207.508 Q324.776,207.803 324.776,208.15 Q324.776,208.51 324.65,208.811 Q324.524,209.111 324.29,209.333 Q324.056,209.555 323.738,209.68 Q323.42,209.807 323.036,209.807 Q322.244,209.807 321.734,209.368 Q321.224,208.93 321.224,208.163 Q321.224,207.79 321.362,207.491 Q321.5,207.191 321.746,206.975 Q321.992,206.758 322.322,206.645 Q322.652,206.531 323.024,206.531 z M323.012,202.954 Q323.636,202.954 324.038,203.285 Q324.44,203.615 324.44,204.262 Q324.44,204.911 324.044,205.271 Q323.648,205.631 323.036,205.631 Q322.724,205.631 322.448,205.547 Q322.172,205.463 321.968,205.295 Q321.764,205.127 321.644,204.868 Q321.524,204.611 321.524,204.262 Q321.524,203.939 321.644,203.699 Q321.764,203.458 321.962,203.29 Q322.16,203.122 322.436,203.038 Q322.712,202.954 323.012,202.954 z" fill="#000000"/>
  </g>
</svg>
