<?xml version="1.0" encoding="UTF-8"?>
<!DOCTYPE svg PUBLIC "-//W3C//DTD SVG 1.1//EN" "http://www.w3.org/Graphics/SVG/1.1/DTD/svg11.dtd">
<svg version="1.1" xmlns="http://www.w3.org/2000/svg" xmlns:xlink="http://www.w3.org/1999/xlink" x="0" y="0" width="72" height="72" viewBox="0, 0, 18, 18">
  <g id="レイヤー_1" transform="translate(-341.625, -284.75)">
    <path d="M356.735,284.75 C358.331,284.75 359.625,286.044 359.625,287.64 L359.625,299.86 C359.625,301.456 358.331,302.75 356.735,302.75 L344.515,302.75 C342.919,302.75 341.625,301.456 341.625,299.86 L341.625,287.64 C341.625,286.044 342.919,284.75 344.515,284.75 L356.735,284.75 z M354.875,295.625 C353.494,295.625 352.375,296.744 352.375,298.125 C352.375,299.506 353.494,300.625 354.875,300.625 C356.256,300.625 357.375,299.506 357.375,298.125 C357.375,296.744 356.256,295.625 354.875,295.625 z M346.562,286.938 C345.182,286.938 344.062,288.057 344.062,289.437 C344.062,290.818 345.182,291.938 346.562,291.937 C347.943,291.938 349.062,290.818 349.062,289.437 C349.062,288.057 347.943,286.938 346.562,286.938 z" fill="#000000"/>
  </g>
</svg>
