<?xml version="1.0" encoding="UTF-8"?>
<!DOCTYPE svg PUBLIC "-//W3C//DTD SVG 1.1//EN" "http://www.w3.org/Graphics/SVG/1.1/DTD/svg11.dtd">
<svg version="1.1" xmlns="http://www.w3.org/2000/svg" xmlns:xlink="http://www.w3.org/1999/xlink" x="0" y="0" width="72" height="72" viewBox="0, 0, 18, 18">
  <g id="レイヤー_1" transform="translate(-341.625, -306.375)">
    <path d="M356.735,306.375 C358.331,306.375 359.625,307.669 359.625,309.265 L359.625,321.485 C359.625,323.081 358.331,324.375 356.735,324.375 L344.515,324.375 C342.919,324.375 341.625,323.081 341.625,321.485 L341.625,309.265 C341.625,307.669 342.919,306.375 344.515,306.375 L356.735,306.375 z M354.875,317.25 C353.494,317.25 352.375,318.369 352.375,319.75 C352.375,321.131 353.494,322.25 354.875,322.25 C356.256,322.25 357.375,321.131 357.375,319.75 C357.375,318.369 356.256,317.25 354.875,317.25 z M350.875,312.875 C349.494,312.875 348.375,313.994 348.375,315.375 C348.375,316.756 349.494,317.875 350.875,317.875 C352.256,317.875 353.375,316.756 353.375,315.375 C353.375,313.994 352.256,312.875 350.875,312.875 z M346.562,308.562 C345.182,308.562 344.062,309.682 344.062,311.062 C344.062,312.443 345.182,313.562 346.562,313.562 C347.943,313.562 349.062,312.443 349.062,311.062 C349.062,309.682 347.943,308.562 346.562,308.562 z" fill="#000000"/>
  </g>
</svg>
