<?xml version="1.0" encoding="UTF-8"?>
<!DOCTYPE svg PUBLIC "-//W3C//DTD SVG 1.1//EN" "http://www.w3.org/Graphics/SVG/1.1/DTD/svg11.dtd">
<svg version="1.1" xmlns="http://www.w3.org/2000/svg" xmlns:xlink="http://www.w3.org/1999/xlink" x="0" y="0" width="72" height="72" viewBox="0, 0, 18, 18">
  <g id="レイヤー_1" transform="translate(-341.625, -328.438)">
    <path d="M356.735,328.438 C358.331,328.438 359.625,329.731 359.625,331.327 L359.625,343.548 C359.625,345.144 358.331,346.438 356.735,346.438 L344.515,346.438 C342.919,346.438 341.625,345.144 341.625,343.548 L341.625,331.327 C341.625,329.731 342.919,328.438 344.515,328.438 L356.735,328.438 z M346.562,339.312 C345.182,339.312 344.062,340.432 344.062,341.812 C344.062,343.193 345.182,344.312 346.562,344.312 C347.943,344.312 349.062,343.193 349.062,341.812 C349.062,340.432 347.943,339.312 346.562,339.312 z M354.875,339.312 C353.494,339.312 352.375,340.432 352.375,341.812 C352.375,343.193 353.494,344.312 354.875,344.312 C356.256,344.312 357.375,343.193 357.375,341.812 C357.375,340.432 356.256,339.312 354.875,339.312 z M346.562,330.625 C345.182,330.625 344.062,331.744 344.062,333.125 C344.062,334.506 345.182,335.625 346.562,335.625 C347.943,335.625 349.062,334.506 349.062,333.125 C349.062,331.744 347.943,330.625 346.562,330.625 z M354.625,330.625 C353.244,330.625 352.125,331.744 352.125,333.125 C352.125,334.506 353.244,335.625 354.625,335.625 C356.006,335.625 357.125,334.506 357.125,333.125 C357.125,331.744 356.006,330.625 354.625,330.625 z" fill="#000000"/>
  </g>
</svg>
