<?xml version="1.0" encoding="UTF-8"?>
<!DOCTYPE svg PUBLIC "-//W3C//DTD SVG 1.1//EN" "http://www.w3.org/Graphics/SVG/1.1/DTD/svg11.dtd">
<svg version="1.1" xmlns="http://www.w3.org/2000/svg" xmlns:xlink="http://www.w3.org/1999/xlink" x="0" y="0" width="73" height="73" viewBox="0, 0, 73, 73">
  <g id="レイヤー_1">
    <path d="M2,0 L71,0 C72.105,0 73,0.895 73,2 L73,12.6 C73,13.705 72.105,14.6 71,14.6 L2,14.6 C0.895,14.6 0,13.705 0,12.6 L0,2 C0,0.895 0.895,0 2,0 z M2,0" fill="#000000"/>
    <path d="M50.667,17.033 L71,17.033 C72.105,17.033 73,17.929 73,19.033 L73,71 C73,72.105 72.105,73 71,73 L50.667,73 C49.562,73 48.667,72.105 48.667,71 L48.667,19.033 C48.667,17.929 49.562,17.033 50.667,17.033 z M50.667,17.033" fill="#000000"/>
    <path d="M2,17.033 L22.333,17.033 C23.438,17.033 24.333,17.929 24.333,19.033 L24.333,71 C24.333,72.105 23.438,73 22.333,73 L2,73 C0.895,73 -0,72.105 -0,71 L-0,19.033 C-0,17.929 0.895,17.033 2,17.033 z M2,17.033" fill="#000000"/>
  </g>
</svg>
