<?xml version="1.0" encoding="UTF-8"?>
<!DOCTYPE svg PUBLIC "-//W3C//DTD SVG 1.1//EN" "http://www.w3.org/Graphics/SVG/1.1/DTD/svg11.dtd">
<svg version="1.1" xmlns="http://www.w3.org/2000/svg" xmlns:xlink="http://www.w3.org/1999/xlink" x="0" y="0" width="316.094" height="87.112" viewBox="0, 0, 316.094, 87.112">
  <g id="レイヤー_1" transform="translate(-5, -4)">
    <path d="M7,4 L76,4 C77.105,4 78,4.895 78,6 L78,16.6 C78,17.705 77.105,18.6 76,18.6 L7,18.6 C5.895,18.6 5,17.705 5,16.6 L5,6 C5,4.895 5.895,4 7,4 z M7,4" fill="#000000"/>
    <path d="M55.667,20.977 L76,20.977 C77.105,20.977 78,21.873 78,22.977 L78,74.944 C78,76.049 77.105,76.944 76,76.944 L55.667,76.944 C54.562,76.944 53.667,76.049 53.667,74.944 L53.667,22.977 C53.667,21.873 54.562,20.977 55.667,20.977 z M55.667,20.977" fill="#000000"/>
    <path d="M7,21.033 L27.333,21.033 C28.438,21.033 29.333,21.929 29.333,23.033 L29.333,75 C29.333,76.105 28.438,77 27.333,77 L7,77 C5.895,77 5,76.105 5,75 L5,23.033 C5,21.929 5.895,21.033 7,21.033 z M7,21.033" fill="#000000"/>
    <g>
      <path d="M96.632,26.6 L96.632,77 L102.392,77 L102.392,54.68 L132.776,54.68 L132.776,77 L138.536,77 L138.536,26.6 L132.776,26.6 L132.776,49.424 L102.392,49.424 L102.392,26.6 z" fill="#000000"/>
      <path d="M167.984,38.912 C156.968,38.984 149.192,46.76 149.192,58.064 C149.192,69.368 156.896,77.216 168.056,77.216 C174.392,77.216 179.72,74.912 183.32,70.952 L180.224,67.712 C177.272,70.808 173.168,72.536 168.488,72.536 C161.072,72.536 155.672,67.64 154.736,60.152 L185.696,60.152 C186.272,47.336 180.224,38.912 167.984,38.912 z M154.736,55.688 C155.528,48.344 160.712,43.592 167.984,43.592 C175.4,43.592 180.296,48.344 180.656,55.688 z" fill="#000000"/>
      <path d="M215.648,38.912 C208.736,38.984 203.624,41.72 200.96,47.48 L200.96,39.128 L195.344,39.128 L195.344,77 L200.96,77 L200.96,56.696 C201.608,49.352 206.216,44.384 213.704,44.312 C220.4,44.312 224.432,48.344 224.432,55.112 L224.432,77 L230.048,77 L230.048,53.672 C230.048,44.456 224.72,38.912 215.648,38.912 z" fill="#000000"/>
      <path d="M270.008,39.128 L270.008,46.832 C267.272,41.792 262.376,38.84 255.896,38.912 C245.744,38.984 238.76,46.4 238.76,57.056 C238.76,67.784 245.816,75.344 256.04,75.344 C262.448,75.344 267.344,72.464 270.008,67.424 L270.008,73.184 C270.008,81.176 264.608,86.288 256.328,86.288 C251.288,86.216 247.328,84.56 243.584,81.464 L240.992,85.568 C245.6,89.096 250.568,91.04 256.544,91.112 C268.064,91.112 275.624,84.128 275.624,73.04 L275.624,39.128 z M257.048,70.736 C249.416,70.736 244.088,65.048 244.016,57.2 C244.088,49.28 249.416,43.592 257.048,43.592 C264.608,43.592 270.008,49.28 270.008,57.2 C270.008,65.048 264.608,70.736 257.048,70.736 z" fill="#000000"/>
      <path d="M303.344,38.912 C292.328,38.984 284.552,46.76 284.552,58.064 C284.552,69.368 292.256,77.216 303.416,77.216 C309.752,77.216 315.08,74.912 318.68,70.952 L315.584,67.712 C312.632,70.808 308.528,72.536 303.848,72.536 C296.432,72.536 291.032,67.64 290.096,60.152 L321.056,60.152 C321.632,47.336 315.584,38.912 303.344,38.912 z M290.096,55.688 C290.888,48.344 296.072,43.592 303.344,43.592 C310.76,43.592 315.656,48.344 316.016,55.688 z" fill="#000000"/>
    </g>
  </g>
</svg>
