<?xml version="1.0" encoding="UTF-8"?>
<!DOCTYPE svg PUBLIC "-//W3C//DTD SVG 1.1//EN" "http://www.w3.org/Graphics/SVG/1.1/DTD/svg11.dtd">
<svg version="1.1" xmlns="http://www.w3.org/2000/svg" xmlns:xlink="http://www.w3.org/1999/xlink" x="0" y="0" width="72" height="72" viewBox="0, 0, 18, 18">
  <g id="レイヤー_1" transform="translate(-340.938, -197.562)">
    <path d="M355.938,197.562 C357.594,197.562 358.938,198.906 358.938,200.562 L358.938,212.562 C358.938,214.219 357.594,215.562 355.938,215.562 L343.938,215.562 C342.281,215.562 340.938,214.219 340.938,212.562 L340.938,200.562 C340.938,198.906 342.281,197.562 343.938,197.562 L355.938,197.562 z M350.741,201.994 L346.986,201.994 L346.986,210.562 L348.125,210.562 L348.125,207.058 L350.741,207.058 Q352.038,207.07 352.704,206.398 Q353.37,205.727 353.37,204.526 Q353.37,203.326 352.704,202.66 Q352.038,201.994 350.742,201.994 z M350.358,202.954 Q351.329,202.954 351.78,203.356 Q352.23,203.758 352.23,204.526 Q352.23,205.294 351.78,205.702 Q351.329,206.111 350.358,206.098 L348.125,206.098 L348.125,202.954 L350.358,202.954 z" fill="#000000"/>
  </g>
</svg>
