<?xml version="1.0" encoding="UTF-8"?>
<!DOCTYPE svg PUBLIC "-//W3C//DTD SVG 1.1//EN" "http://www.w3.org/Graphics/SVG/1.1/DTD/svg11.dtd">
<svg version="1.1" xmlns="http://www.w3.org/2000/svg" xmlns:xlink="http://www.w3.org/1999/xlink" x="0" y="0" width="72" height="72" viewBox="0, 0, 18, 18">
  <g id="レイヤー_1" transform="translate(-340.938, -218.062)">
    <path d="M355.938,218.062 C357.594,218.062 358.938,219.405 358.938,221.062 L358.938,233.062 C358.938,234.719 357.594,236.062 355.938,236.062 L343.938,236.062 C342.281,236.062 340.938,234.719 340.938,233.062 L340.938,221.062 C340.938,219.405 342.281,218.062 343.938,218.062 L355.938,218.062 z M349.865,222.29 Q349.277,222.29 348.72,222.44 Q348.161,222.59 347.724,222.896 Q347.285,223.202 347.022,223.676 Q346.758,224.15 346.758,224.798 Q346.758,225.386 346.991,225.776 Q347.225,226.166 347.616,226.412 Q348.005,226.658 348.497,226.808 Q348.99,226.958 349.5,227.072 Q350.009,227.186 350.501,227.294 Q350.993,227.402 351.384,227.576 Q351.773,227.75 352.008,228.026 Q352.241,228.302 352.241,228.746 Q352.241,229.214 352.049,229.514 Q351.858,229.814 351.546,229.988 Q351.233,230.162 350.844,230.234 Q350.453,230.306 350.069,230.306 Q349.59,230.306 349.134,230.186 Q348.677,230.066 348.336,229.814 Q347.993,229.562 347.784,229.172 Q347.573,228.782 347.573,228.242 L346.493,228.242 Q346.493,229.022 346.776,229.592 Q347.057,230.162 347.543,230.528 Q348.03,230.894 348.672,231.074 Q349.314,231.254 350.034,231.254 Q350.621,231.254 351.216,231.116 Q351.81,230.978 352.289,230.672 Q352.77,230.366 353.076,229.88 Q353.382,229.394 353.382,228.71 Q353.382,228.074 353.147,227.654 Q352.914,227.234 352.523,226.958 Q352.134,226.682 351.642,226.52 Q351.15,226.358 350.639,226.238 Q350.129,226.118 349.638,226.016 Q349.146,225.914 348.755,225.758 Q348.366,225.602 348.132,225.356 Q347.897,225.11 347.897,224.714 Q347.897,224.294 348.06,224.012 Q348.221,223.73 348.491,223.562 Q348.762,223.394 349.109,223.322 Q349.457,223.25 349.818,223.25 Q350.706,223.25 351.276,223.664 Q351.845,224.078 351.941,225.002 L353.021,225.002 Q352.997,224.294 352.751,223.784 Q352.505,223.274 352.079,222.938 Q351.654,222.602 351.09,222.446 Q350.526,222.29 349.866,222.29 z" fill="#000000"/>
  </g>
</svg>
